<?xml version="1.0" encoding="UTF-8" standalone="no"?>
<!-- Created with Inkscape (http://www.inkscape.org/) -->

<svg
   xmlns:dc="http://purl.org/dc/elements/1.1/"
   xmlns:cc="http://creativecommons.org/ns#"
   xmlns:rdf="http://www.w3.org/1999/02/22-rdf-syntax-ns#"
   xmlns:svg="http://www.w3.org/2000/svg"
   xmlns="http://www.w3.org/2000/svg"
   xmlns:sodipodi="http://sodipodi.sourceforge.net/DTD/sodipodi-0.dtd"
   xmlns:inkscape="http://www.inkscape.org/namespaces/inkscape"
   id="svg2"
   version="1.1"
   inkscape:version="0.91 r13725"
   xml:space="preserve"
   width="683.53992"
   height="309.64001"
   viewBox="0 0 683.53989 309.64001"
   sodipodi:docname="dic.svg"><metadata
     id="metadata8"><rdf:RDF><cc:Work
         rdf:about=""><dc:format>image/svg+xml</dc:format><dc:type
           rdf:resource="http://purl.org/dc/dcmitype/StillImage" /><dc:title></dc:title></cc:Work></rdf:RDF></metadata><defs
     id="defs6"><clipPath
       clipPathUnits="userSpaceOnUse"
       id="clipPath16"><path
         d="m 192.923,422.172 c -5.478,0 -9.919,-4.441 -9.919,-9.919 l 0,0 c 0,-5.478 4.441,-9.918 9.919,-9.918 l 0,0 44.03,0 c 57.448,-0.017 104.005,-46.602 103.988,-104.05 l 0,0 C 340.924,240.861 294.376,194.314 236.953,194.297 l 0,0 -31.378,0 c -19.582,0 -38.148,7.947 -38.148,35.191 l 0,0 0,130.024 c 0.268,3.219 2.493,5.937 5.595,6.836 l 0,0 63.581,0 c 37.573,0 68.033,-30.46 68.033,-68.032 l 0,0 c 0,-37.573 -30.46,-68.033 -68.033,-68.033 l 0,0 -26.386,0 c -3.799,0.498 -6.68,3.673 -6.804,7.503 l 0,0 0,69.018 c 0,5.477 -4.44,9.919 -9.918,9.919 l 0,0 c -5.478,0 -9.918,-4.442 -9.918,-9.919 l 0,0 0,-76.489 c 0.084,-10.859 8.82,-19.665 19.678,-19.837 l 0,0 33.348,0 c 48.465,0.018 87.779,39.246 87.901,87.71 l 0,0 c 0,48.45 -39.42,87.838 -76.711,87.838 l 0,0 -80.398,0 c -14.846,0 -19.837,-13.67 -19.806,-19.711 l 0,0 0,-139.655 c 0,-51.246 43.776,-52.2 52.455,-52.2 l 0,0 36.909,0 c 68.404,3.1 121.343,61.065 118.242,129.469 l 0,0 c -2.903,64.063 -54.18,115.34 -118.242,118.243 l 0,0 -44.03,0 z"
         id="path18"
         inkscape:connector-curvature="0" /></clipPath><linearGradient
       x1="0"
       y1="0"
       x2="1"
       y2="0"
       gradientUnits="userSpaceOnUse"
       gradientTransform="matrix(213.2197,0,0,213.2197,147.58926,298.31558)"
       spreadMethod="pad"
       id="linearGradient24"><stop
         style="stop-opacity:1;stop-color:#ff8800"
         offset="0"
         id="stop26" /><stop
         style="stop-opacity:1;stop-color:#ff2662"
         offset="1"
         id="stop28" /></linearGradient><clipPath
       clipPathUnits="userSpaceOnUse"
       id="clipPath36"><path
         d="m 0,595.276 841.89,0 L 841.89,0 0,0 0,595.276 Z"
         id="path38"
         inkscape:connector-curvature="0" /></clipPath></defs><sodipodi:namedview
     pagecolor="#ffffff"
     bordercolor="#666666"
     borderopacity="1"
     objecttolerance="10"
     gridtolerance="10"
     guidetolerance="10"
     inkscape:pageopacity="0"
     inkscape:pageshadow="2"
     inkscape:window-width="1855"
     inkscape:window-height="1056"
     id="namedview4"
     showgrid="false"
     fit-margin-top="0"
     fit-margin-left="0"
     fit-margin-right="0"
     fit-margin-bottom="0"
     inkscape:zoom="0.31716382"
     inkscape:cx="-33.505227"
     inkscape:cy="153.97251"
     inkscape:window-x="1985"
     inkscape:window-y="24"
     inkscape:window-maximized="1"
     inkscape:current-layer="g10" /><g
     id="g10"
     inkscape:groupmode="layer"
     inkscape:label="logo DIC Color"
     transform="matrix(1.25,0,0,-1.25,-184.48607,527.715)"><g
       id="g12"><g
         id="g14"
         clip-path="url(#clipPath16)"><g
           id="g20"><g
             id="g22"><path
               d="m 192.923,422.172 c -5.478,0 -9.919,-4.441 -9.919,-9.919 l 0,0 c 0,-5.478 4.441,-9.918 9.919,-9.918 l 0,0 44.03,0 c 57.448,-0.017 104.005,-46.602 103.988,-104.05 l 0,0 C 340.924,240.861 294.376,194.314 236.953,194.297 l 0,0 -31.378,0 c -19.582,0 -38.148,7.947 -38.148,35.191 l 0,0 0,130.024 c 0.268,3.219 2.493,5.937 5.595,6.836 l 0,0 63.581,0 c 37.573,0 68.033,-30.46 68.033,-68.032 l 0,0 c 0,-37.573 -30.46,-68.033 -68.033,-68.033 l 0,0 -26.386,0 c -3.799,0.498 -6.68,3.673 -6.804,7.503 l 0,0 0,69.018 c 0,5.477 -4.44,9.919 -9.918,9.919 l 0,0 c -5.478,0 -9.918,-4.442 -9.918,-9.919 l 0,0 0,-76.489 c 0.084,-10.859 8.82,-19.665 19.678,-19.837 l 0,0 33.348,0 c 48.465,0.018 87.779,39.246 87.901,87.71 l 0,0 c 0,48.45 -39.42,87.838 -76.711,87.838 l 0,0 -80.398,0 c -14.846,0 -19.837,-13.67 -19.806,-19.711 l 0,0 0,-139.655 c 0,-51.246 43.776,-52.2 52.455,-52.2 l 0,0 36.909,0 c 68.404,3.1 121.343,61.065 118.242,129.469 l 0,0 c -2.903,64.063 -54.18,115.34 -118.242,118.243 l 0,0 -44.03,0 z"
               style="fill:url(#linearGradient24);stroke:none"
               id="path30"
               inkscape:connector-curvature="0" /></g></g></g></g><g
       id="g32"><g
         id="g34"
         clip-path="url(#clipPath36)"><g
           id="g40"
           transform="translate(193.3999,331.632)"><path
             d="m 0,0 c 5.478,0 9.918,4.441 9.918,9.919 0,5.477 -4.44,9.918 -9.918,9.918 -5.478,0 -9.919,-4.441 -9.919,-9.918 C -9.919,4.441 -5.478,0 0,0"
             style="fill:#ff7825;fill-opacity:1;fill-rule:nonzero;stroke:none"
             id="path42"
             inkscape:connector-curvature="0" /></g><g
           id="g44"
           transform="translate(409.2261,345.8742)"><path
             d="m 0,0 c 1.558,0 3.104,0.258 4.578,0.763 1.505,0.527 2.865,1.398 3.974,2.543 1.248,1.328 2.192,2.912 2.766,4.642 0.757,2.24 1.112,4.597 1.049,6.962 0.082,2.305 -0.121,4.611 -0.604,6.867 -0.414,1.878 -1.227,3.645 -2.385,5.181 -1.177,1.42 -2.698,2.514 -4.419,3.18 -2.171,0.821 -4.482,1.21 -6.803,1.144 l -7.916,0 L -9.76,0 0,0 Z m 0.763,40.597 c 3.045,0.024 6.07,-0.493 8.933,-1.526 2.702,-0.981 5.155,-2.543 7.185,-4.578 2.094,-2.191 3.698,-4.803 4.705,-7.661 1.209,-3.473 1.79,-7.133 1.716,-10.81 C 23.329,12.634 22.857,9.26 21.904,6.009 21.064,3.11 19.635,0.415 17.708,-1.907 15.799,-4.18 13.396,-5.985 10.682,-7.185 7.548,-8.517 4.167,-9.167 0.763,-9.092 l -21.458,0 0,49.689 21.458,0 z"
             style="fill:#171927;fill-opacity:1;fill-rule:nonzero;stroke:none"
             id="path46"
             inkscape:connector-curvature="0" /></g><path
           d="m 445.754,336.782 -9.887,0 0,35.987 9.887,0 0,-35.987 z m -9.887,49.689 9.887,0 0,-8.138 -9.887,0 0,8.138 z"
           style="fill:#171927;fill-opacity:1;fill-rule:nonzero;stroke:none"
           id="path48"
           inkscape:connector-curvature="0" /><g
           id="g50"
           transform="translate(470.5186,346.0969)"><path
             d="m 0,0 c 1.043,0.536 1.955,1.295 2.67,2.225 0.688,0.969 1.215,2.043 1.559,3.179 0.348,1.209 0.519,2.462 0.507,3.72 0.013,1.42 -0.126,2.837 -0.413,4.228 -0.248,1.241 -0.722,2.427 -1.398,3.497 -0.636,1.022 -1.523,1.865 -2.575,2.448 -1.246,0.642 -2.637,0.949 -4.038,0.89 -1.239,0.043 -2.467,-0.242 -3.56,-0.827 -0.999,-0.549 -1.858,-1.322 -2.512,-2.256 -0.683,-0.958 -1.179,-2.037 -1.462,-3.18 -0.312,-1.269 -0.462,-2.572 -0.445,-3.878 -0.035,-1.31 0.062,-2.62 0.286,-3.91 0.222,-1.215 0.663,-2.378 1.304,-3.434 0.614,-1.022 1.465,-1.883 2.479,-2.511 1.147,-0.698 2.474,-1.041 3.815,-0.986 C -2.476,-0.844 -1.177,-0.571 0,0 m 13.543,-11.953 c -0.407,-1.911 -1.28,-3.692 -2.543,-5.182 -1.531,-1.779 -3.459,-3.173 -5.627,-4.07 -3.143,-1.244 -6.511,-1.817 -9.888,-1.684 -1.821,0.008 -3.635,0.232 -5.404,0.667 -1.759,0.414 -3.443,1.101 -4.991,2.035 -1.492,0.916 -2.772,2.141 -3.751,3.592 -1.054,1.565 -1.648,3.393 -1.717,5.278 l 9.823,0 c 0.288,-1.627 1.277,-3.045 2.702,-3.879 1.441,-0.752 3.049,-1.124 4.674,-1.081 2.312,-0.202 4.578,0.735 6.072,2.512 1.339,1.838 1.992,4.088 1.843,6.358 l 0,4.705 C 3.708,-4.562 2.101,-6.036 0.159,-6.898 -1.829,-7.83 -4.004,-8.297 -6.199,-8.266 c -2.39,-0.061 -4.761,0.429 -6.931,1.431 -1.885,0.894 -3.53,2.224 -4.8,3.878 -1.321,1.759 -2.262,3.772 -2.765,5.914 -0.583,2.285 -0.871,4.635 -0.859,6.994 -0.011,2.272 0.321,4.534 0.986,6.707 0.648,2.064 1.648,4 2.956,5.722 1.312,1.655 2.973,3.001 4.864,3.943 2.07,0.999 4.346,1.5 6.644,1.462 2.195,0.063 4.374,-0.395 6.358,-1.335 1.899,-1.011 3.459,-2.559 4.482,-4.451 l 0,4.673 9.538,0 0,-33.698 c -0.063,-1.664 -0.308,-3.316 -0.731,-4.927"
             style="fill:#171927;fill-opacity:1;fill-rule:nonzero;stroke:none"
             id="path52"
             inkscape:connector-curvature="0" /></g><path
           d="m 497.445,336.782 -9.887,0 0,35.987 9.887,0 0,-35.987 z m -9.886,49.689 9.887,0 0,-8.138 -9.887,0 0,8.138 z"
           style="fill:#171927;fill-opacity:1;fill-rule:nonzero;stroke:none"
           id="path54"
           inkscape:connector-curvature="0" /><g
           id="g56"
           transform="translate(522.7187,372.7693)"><path
             d="m 0,0 0,-6.612 -7.248,0 0,-17.835 c -0.137,-1.18 0.169,-2.37 0.858,-3.338 0.932,-0.636 2.056,-0.928 3.179,-0.827 l 1.59,0 1.462,0.223 0,-7.662 c -0.826,-0.127 -1.748,-0.222 -2.766,-0.286 l -3.179,0 c -1.447,-0.011 -2.893,0.096 -4.324,0.318 -1.274,0.165 -2.505,0.575 -3.624,1.208 -1.055,0.604 -1.916,1.498 -2.479,2.575 -0.654,1.367 -0.96,2.874 -0.89,4.387 l 0,21.237 -6.009,0 0,6.612 6.009,0 0,10.777 9.855,0 L -7.566,0 0,0 Z"
             style="fill:#171927;fill-opacity:1;fill-rule:nonzero;stroke:none"
             id="path58"
             inkscape:connector-curvature="0" /></g><g
           id="g60"
           transform="translate(547.4521,354.4577)"><path
             d="M 0,0 C -0.45,-0.396 -0.982,-0.689 -1.558,-0.858 -2.22,-1.094 -2.9,-1.275 -3.593,-1.399 l -2.257,-0.35 c -0.795,0 -1.557,-0.19 -2.352,-0.349 -0.743,-0.128 -1.477,-0.309 -2.194,-0.541 -0.675,-0.207 -1.31,-0.529 -1.875,-0.953 -0.547,-0.388 -0.994,-0.9 -1.304,-1.494 -0.341,-0.714 -0.505,-1.499 -0.477,-2.289 -0.025,-0.77 0.139,-1.534 0.477,-2.226 0.305,-0.59 0.767,-1.085 1.336,-1.43 0.591,-0.37 1.25,-0.619 1.938,-0.731 0.756,-0.141 1.522,-0.215 2.289,-0.223 1.576,-0.078 3.145,0.261 4.546,0.985 0.969,0.562 1.779,1.36 2.353,2.321 0.486,0.856 0.809,1.793 0.954,2.766 l 0,2.225 L 0,0 Z m -22.826,7.312 c 0.052,2.041 0.656,4.029 1.749,5.754 0.988,1.539 2.314,2.833 3.878,3.783 1.663,0.939 3.467,1.604 5.341,1.971 1.958,0.391 3.948,0.594 5.945,0.604 1.839,-0.017 3.676,-0.145 5.5,-0.382 1.764,-0.242 3.479,-0.757 5.086,-1.525 1.499,-0.726 2.79,-1.82 3.751,-3.179 1.042,-1.545 1.555,-3.385 1.463,-5.246 l 0,-18.724 c -0.004,-1.563 0.092,-3.123 0.286,-4.674 0.092,-1.165 0.416,-2.3 0.953,-3.338 l -10.014,0 c -0.196,0.559 -0.345,1.133 -0.445,1.717 -0.12,0.588 -0.205,1.182 -0.254,1.78 -1.523,-1.609 -3.441,-2.793 -5.563,-3.433 -2.125,-0.634 -4.331,-0.956 -6.549,-0.954 -1.62,-0.017 -3.236,0.186 -4.801,0.604 -1.414,0.383 -2.734,1.055 -3.878,1.971 -1.117,0.837 -2.021,1.927 -2.639,3.179 -0.646,1.516 -0.961,3.153 -0.921,4.801 -0.073,1.739 0.298,3.467 1.081,5.022 0.657,1.264 1.604,2.354 2.765,3.18 1.196,0.807 2.517,1.408 3.91,1.78 1.455,0.386 2.931,0.694 4.419,0.922 1.484,0.254 2.947,0.445 4.387,0.572 1.287,0.108 2.563,0.321 3.815,0.636 0.972,0.189 1.886,0.603 2.67,1.208 0.652,0.586 0.983,1.449 0.891,2.321 0.05,0.877 -0.125,1.753 -0.509,2.543 -0.329,0.603 -0.811,1.107 -1.399,1.462 -0.627,0.361 -1.318,0.598 -2.034,0.7 -0.81,0.13 -1.628,0.194 -2.449,0.191 -1.632,0.085 -3.251,-0.361 -4.609,-1.272 -1.213,-1.047 -1.919,-2.563 -1.939,-4.165 l -9.887,0.191 z"
             style="fill:#171927;fill-opacity:1;fill-rule:nonzero;stroke:none"
             id="path62"
             inkscape:connector-curvature="0" /></g><path
           d="m 571.231,336.782 -9.887,0 0,49.688 9.887,0 0,-49.688 z"
           style="fill:#171927;fill-opacity:1;fill-rule:nonzero;stroke:none"
           id="path64"
           inkscape:connector-curvature="0" /><path
           d="m 399.466,273.519 -10.936,0 0,49.689 10.936,0 0,-49.689 z"
           style="fill:#171927;fill-opacity:1;fill-rule:nonzero;stroke:none"
           id="path66"
           inkscape:connector-curvature="0" /><g
           id="g68"
           transform="translate(412.7549,309.5061)"><path
             d="m 0,0 0,-4.959 0.223,0 c 1.121,1.947 2.805,3.51 4.832,4.482 1.901,0.931 3.987,1.419 6.103,1.431 2.17,0.061 4.331,-0.307 6.359,-1.081 1.577,-0.623 2.96,-1.654 4.005,-2.989 1.026,-1.385 1.732,-2.982 2.067,-4.673 0.399,-1.999 0.591,-4.034 0.572,-6.072 l 0,-22.253 -9.569,0 0,20.441 c 0.154,2.298 -0.319,4.594 -1.367,6.644 -1.151,1.573 -3.054,2.41 -4.991,2.194 -2.229,0.206 -4.416,-0.698 -5.85,-2.416 -1.408,-2.376 -2.042,-5.132 -1.812,-7.885 l 0,-18.851 -9.982,0 L -9.41,0 0,0 Z"
             style="fill:#171927;fill-opacity:1;fill-rule:nonzero;stroke:none"
             id="path70"
             inkscape:connector-curvature="0" /></g><g
           id="g72"
           transform="translate(450.5537,309.5061)"><path
             d="m 0,0 0,-4.959 0.191,0 c 1.14,1.971 2.846,3.554 4.896,4.545 1.899,0.934 3.987,1.423 6.103,1.431 2.223,0.08 4.44,-0.288 6.518,-1.081 1.577,-0.622 2.96,-1.654 4.005,-2.988 1.016,-1.388 1.712,-2.984 2.035,-4.673 0.474,-2.011 0.719,-4.07 0.731,-6.136 l 0,-22.253 -10.014,0 0,20.441 c 0.144,2.301 -0.339,4.597 -1.399,6.644 -1.129,1.563 -3.01,2.4 -4.927,2.194 -2.229,0.206 -4.416,-0.698 -5.85,-2.416 -1.408,-2.376 -2.042,-5.132 -1.811,-7.885 l 0,-18.851 -9.888,0 L -9.41,0 0,0 Z"
             style="fill:#171927;fill-opacity:1;fill-rule:nonzero;stroke:none"
             id="path74"
             inkscape:connector-curvature="0" /></g><g
           id="g76"
           transform="translate(488.1309,287.2522)"><path
             d="m 0,0 c 0.259,-1.303 0.743,-2.551 1.431,-3.688 0.656,-1.08 1.574,-1.976 2.67,-2.606 1.278,-0.685 2.713,-1.025 4.165,-0.985 1.469,-0.04 2.925,0.3 4.227,0.985 1.111,0.62 2.043,1.519 2.702,2.606 0.688,1.137 1.172,2.385 1.431,3.688 0.284,1.392 0.423,2.809 0.413,4.229 0.006,1.419 -0.132,2.835 -0.413,4.228 -0.248,1.306 -0.732,2.556 -1.431,3.688 -0.668,1.081 -1.597,1.977 -2.702,2.606 C 11.2,15.463 9.74,15.814 8.266,15.769 6.811,15.814 5.371,15.462 4.101,14.751 3.012,14.112 2.095,13.218 1.431,12.145 0.732,11.013 0.248,9.763 0,8.457 -0.281,7.064 -0.42,5.648 -0.414,4.229 -0.423,2.809 -0.284,1.392 0,0 m -8.997,12.049 c 1.628,4.488 5.1,8.063 9.537,9.823 2.437,0.922 5.025,1.375 7.63,1.336 2.625,0.037 5.234,-0.416 7.693,-1.336 2.256,-0.835 4.306,-2.147 6.009,-3.847 1.665,-1.705 2.954,-3.741 3.782,-5.976 0.891,-2.51 1.332,-5.157 1.304,-7.82 0.034,-2.665 -0.407,-5.312 -1.304,-7.821 -0.835,-2.222 -2.123,-4.247 -3.782,-5.945 -1.662,-1.675 -3.669,-2.966 -5.882,-3.783 -2.459,-0.919 -5.068,-1.372 -7.693,-1.335 -2.605,-0.04 -5.193,0.413 -7.63,1.335 -2.199,0.825 -4.194,2.116 -5.85,3.783 -1.659,1.698 -2.947,3.723 -3.782,5.945 -0.896,2.509 -1.338,5.156 -1.304,7.821 -0.039,2.661 0.392,5.308 1.272,7.82"
             style="fill:#171927;fill-opacity:1;fill-rule:nonzero;stroke:none"
             id="path78"
             inkscape:connector-curvature="0" /></g><g
           id="g80"
           transform="translate(526.1523,273.5188)"><path
             d="m 0,0 -12.335,35.987 10.396,0 7.566,-24.574 0.159,0 7.566,24.574 9.823,0 L 10.999,0 0,0 Z"
             style="fill:#171927;fill-opacity:1;fill-rule:nonzero;stroke:none"
             id="path82"
             inkscape:connector-curvature="0" /></g><g
           id="g84"
           transform="translate(572.3437,291.1311)"><path
             d="m 0,0 c -0.452,-0.401 -0.982,-0.705 -1.558,-0.891 -0.656,-0.21 -1.325,-0.38 -2.003,-0.508 -0.731,-0.159 -1.494,-0.254 -2.256,-0.35 l -2.385,-0.35 c -0.745,-0.13 -1.479,-0.322 -2.194,-0.572 -0.668,-0.21 -1.3,-0.52 -1.875,-0.922 -0.531,-0.396 -0.965,-0.907 -1.272,-1.494 -0.677,-1.439 -0.677,-3.106 0,-4.546 0.314,-0.566 0.761,-1.047 1.304,-1.398 0.593,-0.365 1.252,-0.614 1.939,-0.732 0.764,-0.154 1.541,-0.228 2.321,-0.222 1.566,-0.09 3.127,0.251 4.514,0.985 0.975,0.553 1.786,1.354 2.353,2.321 0.508,0.844 0.834,1.787 0.953,2.766 0.104,0.737 0.158,1.48 0.159,2.225 L 0,0 Z m -22.825,7.28 c 0.048,3.961 2.205,7.596 5.658,9.537 1.648,0.954 3.441,1.631 5.31,2.003 1.959,0.379 3.949,0.571 5.944,0.572 1.84,-0.001 3.678,-0.129 5.5,-0.381 1.764,-0.228 3.479,-0.733 5.087,-1.494 1.497,-0.728 2.787,-1.822 3.751,-3.18 1.046,-1.554 1.559,-3.406 1.462,-5.277 l 0,-18.724 c -0.003,-1.552 0.092,-3.103 0.286,-4.642 0.107,-1.116 0.442,-2.198 0.985,-3.179 l -9.918,0 c -0.192,0.551 -0.351,1.114 -0.477,1.685 -0.106,0.589 -0.18,1.183 -0.222,1.78 -1.539,-1.659 -3.492,-2.876 -5.659,-3.529 -2.11,-0.66 -4.307,-0.992 -6.517,-0.985 -1.622,-0.009 -3.237,0.205 -4.801,0.636 -1.417,0.385 -2.745,1.044 -3.91,1.939 -1.114,0.897 -2.006,2.04 -2.607,3.338 -0.666,1.511 -0.991,3.149 -0.953,4.801 -0.061,1.748 0.31,3.483 1.081,5.054 0.669,1.265 1.628,2.354 2.797,3.179 1.187,0.802 2.497,1.403 3.879,1.78 1.465,0.387 2.951,0.695 4.45,0.922 l 4.355,0.573 c 1.295,0.112 2.58,0.313 3.847,0.604 0.961,0.21 1.863,0.634 2.639,1.239 0.67,0.573 1.004,1.447 0.89,2.321 0.046,0.877 -0.129,1.752 -0.509,2.544 -0.319,0.609 -0.804,1.116 -1.399,1.462 -0.616,0.36 -1.296,0.598 -2.002,0.699 -0.823,0.105 -1.651,0.158 -2.48,0.159 -1.62,0.09 -3.225,-0.344 -4.578,-1.24 -1.229,-1.05 -1.948,-2.579 -1.971,-4.196 l -9.918,0 z"
             style="fill:#171927;fill-opacity:1;fill-rule:nonzero;stroke:none"
             id="path86"
             inkscape:connector-curvature="0" /></g><g
           id="g88"
           transform="translate(606.1689,309.5061)"><path
             d="m 0,0 0,-6.613 -7.152,0 0,-17.834 c -0.683,-1.617 0.076,-3.483 1.693,-4.164 0.79,-0.334 1.681,-0.334 2.471,0 l 1.59,0 c 0.492,0.036 0.981,0.11 1.461,0.221 l 0,-7.661 c -0.913,-0.168 -1.837,-0.263 -2.765,-0.286 l -2.988,0 c -1.458,-0.011 -2.914,0.096 -4.356,0.318 -1.274,0.165 -2.505,0.575 -3.624,1.208 -1.056,0.604 -1.916,1.498 -2.479,2.575 -0.655,1.367 -0.96,2.874 -0.891,4.387 l 0,21.236 -6.008,0 0,6.613 5.977,0 0,10.777 9.919,0 L -7.152,0 0,0 Z"
             style="fill:#171927;fill-opacity:1;fill-rule:nonzero;stroke:none"
             id="path90"
             inkscape:connector-curvature="0" /></g><path
           d="m 618.44,273.519 -9.887,0 0,35.987 9.887,0 0,-35.987 z m -9.886,49.689 9.887,0 0,-8.139 -9.887,0 0,8.139 z"
           style="fill:#171927;fill-opacity:1;fill-rule:nonzero;stroke:none"
           id="path92"
           inkscape:connector-curvature="0" /><g
           id="g94"
           transform="translate(631.0928,287.2522)"><path
             d="m 0,0 c 0.26,-1.303 0.743,-2.551 1.431,-3.688 0.656,-1.08 1.575,-1.976 2.671,-2.606 1.288,-0.69 2.735,-1.029 4.196,-0.985 1.46,-0.037 2.905,0.302 4.196,0.985 1.114,0.627 2.055,1.523 2.734,2.606 0.69,1.132 1.165,2.383 1.399,3.688 0.294,1.391 0.443,2.808 0.445,4.229 -0.005,1.42 -0.154,2.836 -0.445,4.228 -0.223,1.308 -0.698,2.561 -1.399,3.688 -0.689,1.075 -1.626,1.97 -2.734,2.606 C 11.211,15.459 9.762,15.81 8.298,15.769 6.832,15.818 5.381,15.466 4.102,14.751 3.012,14.112 2.096,13.218 1.431,12.145 0.733,11.013 0.248,9.763 0,8.457 -0.28,7.064 -0.419,5.648 -0.413,4.229 -0.422,2.809 -0.283,1.392 0,0 m -8.965,12.049 c 0.805,2.24 2.085,4.278 3.751,5.976 1.66,1.678 3.652,2.988 5.85,3.847 2.447,0.922 5.047,1.376 7.662,1.336 2.625,0.034 5.233,-0.419 7.693,-1.336 4.454,-1.735 7.935,-5.32 9.537,-9.823 0.906,-2.506 1.348,-5.156 1.303,-7.82 0.05,-2.666 -0.393,-5.316 -1.303,-7.821 -0.768,-2.204 -1.98,-4.227 -3.56,-5.945 -1.667,-1.668 -3.673,-2.958 -5.882,-3.783 -2.46,-0.916 -5.068,-1.369 -7.693,-1.335 -2.615,-0.04 -5.214,0.413 -7.662,1.335 -2.199,0.825 -4.195,2.116 -5.849,3.783 -1.66,1.691 -2.939,3.719 -3.751,5.945 -0.923,2.502 -1.375,5.154 -1.335,7.821 -0.066,2.66 0.355,5.31 1.239,7.82"
             style="fill:#171927;fill-opacity:1;fill-rule:nonzero;stroke:none"
             id="path96"
             inkscape:connector-curvature="0" /></g><g
           id="g98"
           transform="translate(670.3545,309.5061)"><path
             d="m 0,0 0,-4.959 0.19,0 c 1.117,1.928 2.775,3.487 4.769,4.482 1.9,0.934 3.987,1.423 6.104,1.431 2.169,0.061 4.331,-0.307 6.358,-1.081 1.577,-0.623 2.96,-1.654 4.006,-2.989 1.025,-1.385 1.731,-2.982 2.066,-4.673 0.4,-1.999 0.591,-4.034 0.572,-6.072 l 0,-22.253 -9.569,0 0,20.441 c 0.154,2.298 -0.317,4.594 -1.366,6.644 -1.15,1.557 -3.035,2.392 -4.96,2.194 -2.229,0.206 -4.416,-0.698 -5.85,-2.416 -1.408,-2.376 -2.042,-5.132 -1.811,-7.885 l 0,-18.851 -9.887,0 L -9.378,0 0,0 Z"
             style="fill:#171927;fill-opacity:1;fill-rule:nonzero;stroke:none"
             id="path100"
             inkscape:connector-curvature="0" /></g><g
           id="g102"
           transform="translate(420.4165,246.6555)"><path
             d="M 0,0 C -0.648,1.058 -1.477,1.994 -2.448,2.767 -3.395,3.558 -4.47,4.182 -5.627,4.61 -6.86,5.058 -8.162,5.283 -9.474,5.277 -11.681,5.361 -13.873,4.868 -15.832,3.847 -17.518,2.931 -18.95,1.609 -19.996,0 c -1.101,-1.658 -1.897,-3.499 -2.353,-5.436 -0.485,-2.085 -0.731,-4.217 -0.731,-6.358 0.002,-2.046 0.248,-4.084 0.731,-6.072 0.469,-1.904 1.265,-3.71 2.353,-5.341 1.067,-1.574 2.495,-2.871 4.164,-3.783 1.959,-1.021 4.151,-1.514 6.358,-1.431 2.946,-0.131 5.803,1.03 7.821,3.18 1.965,2.266 3.175,5.089 3.465,8.074 l 10.555,0 c -0.24,-2.951 -1.004,-5.837 -2.257,-8.52 -1.115,-2.395 -2.68,-4.553 -4.61,-6.358 -1.935,-1.775 -4.205,-3.148 -6.676,-4.037 -2.705,-0.953 -5.556,-1.427 -8.425,-1.398 -3.524,-0.052 -7.021,0.63 -10.268,2.002 -2.934,1.238 -5.56,3.104 -7.693,5.468 -2.131,2.375 -3.764,5.153 -4.801,8.17 -1.127,3.25 -1.686,6.67 -1.653,10.11 -0.04,3.512 0.519,7.006 1.653,10.332 1.035,3.065 2.667,5.896 4.801,8.329 2.119,2.402 4.748,4.302 7.693,5.563 3.239,1.402 6.74,2.096 10.268,2.034 2.631,0.005 5.247,-0.391 7.757,-1.175 2.372,-0.755 4.591,-1.929 6.549,-3.465 1.937,-1.539 3.557,-3.44 4.769,-5.596 1.291,-2.369 2.091,-4.976 2.352,-7.661 l -10.586,0 C 1.069,-2.171 0.646,-1.023 0,0"
             style="fill:#171927;fill-opacity:1;fill-rule:nonzero;stroke:none"
             id="path104"
             inkscape:connector-curvature="0" /></g><g
           id="g106"
           transform="translate(457.3252,237.7863)"><path
             d="m 0,0 c -1.419,1.407 -3.38,2.127 -5.372,1.971 -1.361,0.044 -2.713,-0.24 -3.942,-0.826 -0.975,-0.46 -1.833,-1.134 -2.512,-1.971 -0.588,-0.749 -1.029,-1.601 -1.303,-2.512 -0.235,-0.766 -0.395,-1.555 -0.477,-2.352 l 16.085,0 C 2.217,-3.595 1.356,-1.619 0,0 m -11.158,-19.074 c 1.756,-1.524 4.038,-2.299 6.358,-2.162 1.828,-0.037 3.625,0.484 5.15,1.494 1.209,0.736 2.137,1.855 2.638,3.179 l 8.679,0 c -0.971,-3.742 -3.22,-7.025 -6.357,-9.283 -3.138,-1.906 -6.758,-2.866 -10.428,-2.765 -2.618,-0.046 -5.221,0.418 -7.661,1.366 -2.19,0.841 -4.165,2.154 -5.786,3.847 -1.614,1.722 -2.858,3.755 -3.657,5.977 -0.874,2.458 -1.304,5.052 -1.271,7.661 -0.033,2.571 0.408,5.125 1.304,7.534 0.831,2.237 2.107,4.281 3.751,6.009 1.654,1.708 3.631,3.07 5.817,4.006 2.36,1.107 4.928,1.703 7.535,1.748 2.765,0.062 5.503,-0.55 7.98,-1.78 2.223,-1.126 4.15,-2.76 5.627,-4.769 1.493,-2.039 2.573,-4.349 3.178,-6.803 0.666,-2.615 0.903,-5.321 0.699,-8.011 l -26.004,0 c -0.175,-2.645 0.705,-5.251 2.448,-7.248"
             style="fill:#171927;fill-opacity:1;fill-rule:nonzero;stroke:none"
             id="path108"
             inkscape:connector-curvature="0" /></g><g
           id="g110"
           transform="translate(481.3906,246.2111)"><path
             d="m 0,0 0,-4.991 0.223,0 c 1.129,1.969 2.823,3.553 4.864,4.546 1.911,0.933 4.009,1.423 6.136,1.43 2.17,0.063 4.331,-0.304 6.357,-1.081 1.568,-0.637 2.948,-1.667 4.006,-2.988 1.025,-1.386 1.731,-2.982 2.066,-4.673 0.398,-2 0.59,-4.034 0.573,-6.072 l 0,-22.254 -9.887,0 0,20.347 c 0.154,2.297 -0.318,4.593 -1.367,6.643 C 11.826,-7.53 9.938,-6.694 8.012,-6.899 5.786,-6.715 3.609,-7.614 2.162,-9.315 0.753,-11.69 0.12,-14.446 0.35,-17.199 l 0,-18.884 -9.855,0 L -9.505,0 0,0 Z"
             style="fill:#171927;fill-opacity:1;fill-rule:nonzero;stroke:none"
             id="path112"
             inkscape:connector-curvature="0" /></g><g
           id="g114"
           transform="translate(529.6172,246.2111)"><path
             d="m 0,0 0,-6.613 -7.248,0 0,-17.707 c -0.51,-1.809 0.544,-3.687 2.352,-4.197 0.603,-0.17 1.241,-0.17 1.844,0 0.53,-0.032 1.061,-0.032 1.59,0 0.491,0.031 0.98,0.094 1.462,0.191 l 0,-7.661 c -0.927,-0.141 -1.86,-0.226 -2.798,-0.255 l -2.988,0 c -1.457,0.006 -2.912,0.111 -4.355,0.318 -1.264,0.185 -2.483,0.606 -3.592,1.24 -1.056,0.604 -1.916,1.497 -2.48,2.575 -0.665,1.364 -0.981,2.871 -0.922,4.387 l 0,21.109 -5.976,0 0,6.613 5.976,0 0,10.649 9.887,0 0,-10.808 L 0,0 Z"
             style="fill:#171927;fill-opacity:1;fill-rule:nonzero;stroke:none"
             id="path116"
             inkscape:connector-curvature="0" /></g><g
           id="g118"
           transform="translate(552.6338,237.7863)"><path
             d="m 0,0 c -1.436,1.401 -3.403,2.119 -5.404,1.971 -1.362,0.044 -2.713,-0.24 -3.943,-0.826 -0.974,-0.46 -1.833,-1.134 -2.511,-1.971 -0.588,-0.749 -1.03,-1.601 -1.303,-2.512 -0.241,-0.764 -0.391,-1.554 -0.445,-2.352 l 16.054,0 C 2.181,-3.603 1.332,-1.631 0,0 m -11.19,-19.074 c 1.755,-1.524 4.038,-2.299 6.358,-2.162 1.828,-0.037 3.625,0.484 5.149,1.494 1.22,0.724 2.152,1.847 2.639,3.179 l 8.68,0 c -0.972,-3.742 -3.221,-7.025 -6.359,-9.283 -3.132,-1.916 -6.756,-2.878 -10.427,-2.765 -2.619,-0.046 -5.221,0.418 -7.662,1.366 -2.188,0.841 -4.165,2.154 -5.786,3.847 -1.613,1.722 -2.857,3.755 -3.656,5.977 -0.911,2.526 -1.352,5.198 -1.303,7.884 -0.034,2.57 0.409,5.125 1.303,7.534 0.832,2.235 2.108,4.28 3.752,6.009 1.66,1.7 3.636,3.06 5.817,4.005 2.387,1.036 4.965,1.556 7.567,1.526 2.764,0.062 5.503,-0.55 7.979,-1.78 2.224,-1.126 4.151,-2.76 5.627,-4.769 1.493,-2.039 2.574,-4.349 3.179,-6.803 0.666,-2.615 0.902,-5.321 0.699,-8.011 l -25.94,0 c -0.211,-2.639 0.648,-5.25 2.384,-7.248"
             style="fill:#171927;fill-opacity:1;fill-rule:nonzero;stroke:none"
             id="path120"
             inkscape:connector-curvature="0" /></g><g
           id="g122"
           transform="translate(576.7627,246.2111)"><path
             d="m 0,0 0,-6.677 c 0.466,1.154 1.109,2.226 1.907,3.18 0.767,0.952 1.679,1.778 2.702,2.447 0.981,0.669 2.051,1.194 3.18,1.558 1.169,0.386 2.393,0.579 3.624,0.572 0.733,-0.019 1.46,-0.137 2.162,-0.35 l 0,-9.155 -1.495,0 -1.875,0 C 8.619,-8.385 7.044,-8.7 5.596,-9.347 4.4,-9.899 3.362,-10.74 2.575,-11.795 1.79,-12.89 1.238,-14.134 0.954,-15.45 0.598,-16.939 0.427,-18.466 0.445,-19.997 l 0,-16.213 -9.982,0 0,36.21 L 0,0 Z"
             style="fill:#171927;fill-opacity:1;fill-rule:nonzero;stroke:none"
             id="path124"
             inkscape:connector-curvature="0" /></g></g></g></g></svg>