<?xml version="1.0" encoding="UTF-8" standalone="no"?>
<svg
   xmlns:dc="http://purl.org/dc/elements/1.1/"
   xmlns:cc="http://creativecommons.org/ns#"
   xmlns:rdf="http://www.w3.org/1999/02/22-rdf-syntax-ns#"
   xmlns:svg="http://www.w3.org/2000/svg"
   xmlns="http://www.w3.org/2000/svg"
   xmlns:xlink="http://www.w3.org/1999/xlink"
   xmlns:sodipodi="http://sodipodi.sourceforge.net/DTD/sodipodi-0.dtd"
   xmlns:inkscape="http://www.inkscape.org/namespaces/inkscape"
   width="233"
   height="235"
   id="svg2"
   version="1.1"
   inkscape:version="0.91 r13725"
   sodipodi:docname="avatar.svg">
  <metadata
     id="metadata50">
    <rdf:RDF>
      <cc:Work
         rdf:about="">
        <dc:format>image/svg+xml</dc:format>
        <dc:type
           rdf:resource="http://purl.org/dc/dcmitype/StillImage" />
        <dc:title>background</dc:title>
      </cc:Work>
    </rdf:RDF>
  </metadata>
  <sodipodi:namedview
     pagecolor="#ffffff"
     bordercolor="#666666"
     borderopacity="1"
     objecttolerance="10"
     gridtolerance="10"
     guidetolerance="10"
     inkscape:pageopacity="0"
     inkscape:pageshadow="2"
     inkscape:window-width="1855"
     inkscape:window-height="1056"
     id="namedview48"
     showgrid="false"
     inkscape:zoom="2.840463"
     inkscape:cx="35.221904"
     inkscape:cy="127.44041"
     inkscape:window-x="1985"
     inkscape:window-y="24"
     inkscape:window-maximized="1"
     inkscape:current-layer="svg2" />
  <defs
     id="defs4">
    <linearGradient
       id="a"
       x1="116.72"
       y1="237.98"
       x2="116.72"
       y2="6.21"
       gradientUnits="userSpaceOnUse">
      <stop
         offset="0"
         stop-color="gray"
         stop-opacity=".25"
         id="stop7" />
      <stop
         offset=".54"
         stop-color="gray"
         stop-opacity=".12"
         id="stop9" />
      <stop
         offset="1"
         stop-color="gray"
         stop-opacity=".1"
         id="stop11" />
    </linearGradient>
    <linearGradient
       id="b"
       x1="384.97"
       y1="232.29"
       x2="384.97"
       y2=".51"
       xlink:href="#a" />
  </defs>
  <title
     id="title14">background</title>
  <path
     d="M-1-1h235v237H-1z"
     id="path16"
     fill="none" />
  <g
     id="g4270"
     transform="matrix(1.4450252,0,0,1.4129714,-52.046993,-28.512639)">
    <g
       transform="matrix(1.0676338,0,0,1.0676338,-7.4319991,-39.884249)"
       id="g18">
      <title
         id="title20">Layer 1</title>
      <path
         style="fill:#333333"
         inkscape:connector-curvature="0"
         id="path26"
         d="m 72.571,117.929 c 0,0 -12.86,63.36 -19.88,59.85 0,0 67.7,58.48 127.48,0 0,0 -10.53,-44.65 -25.73,-59.85 l -81.87,0 z" />
      <path
         style="fill:#6c63ff"
         inkscape:connector-curvature="0"
         id="path28"
         d="m 179.501,212.97215 c -4.18,-23.72288 -20.09,-25.08315 -20.09,-25.08315 l -87.72,0 c 0,0 -14.738705,2.9728 -19.438705,24.80532 127.248705,0.27783 0,0 127.248705,0.27783 z"
         sodipodi:nodetypes="ccccc" />
      <circle
         style="fill:#333333"
         id="circle30"
         r="50.290001"
         cy="114.419"
         cx="115.941" />
      <path
         style="opacity:0.1"
         inkscape:connector-curvature="0"
         id="path36"
         d="m 98.341,173.279 a 50.5,50.5 0 0 0 35.09,0.1 l 0,-4.31 -35.09,0 0,4.21 z" />
      <circle
         style="fill:#be7c5e"
         id="circle38"
         r="50.290001"
         cy="125.329"
         cx="115.941" />
      <path
         style="fill:#333333"
         inkscape:connector-curvature="0"
         id="path40"
         d="m 67.871,106.229 95.9,0 c 0,0 -8.19,-38.72 -44.44,-36.25 -36.25,2.47 -51.46,36.25 -51.46,36.25 z" />
      <ellipse
         style="fill:#be7c5e"
         id="ellipse42"
         ry="8.7700005"
         rx="4.6799998"
         cy="130.23"
         cx="65.986893" />
      <ellipse
         style="fill:#be7c5e"
         id="ellipse44"
         ry="8.7700005"
         rx="4.6799998"
         cy="129.73"
         cx="165.28305" />
      <path
         style="opacity:0.1"
         inkscape:connector-curvature="0"
         id="path46"
         d="m 67.871,107.529 95.9,0 c 0,0 -8.19,-38.72 -44.44,-36.25 -36.25,2.47 -51.46,36.25 -51.46,36.25 z" />
    </g>
    <rect
       y="144.87386"
       x="101.53766"
       height="15.891842"
       width="29.924683"
       id="rect4259"
       style="opacity:1;fill:#be7c5e;fill-opacity:1;fill-rule:evenodd;stroke:none;stroke-opacity:0.69597072" />
  </g>
</svg>
