<?xml version="1.0" encoding="UTF-8" standalone="no"?>
<svg
   xmlns:dc="http://purl.org/dc/elements/1.1/"
   xmlns:cc="http://creativecommons.org/ns#"
   xmlns:rdf="http://www.w3.org/1999/02/22-rdf-syntax-ns#"
   xmlns:svg="http://www.w3.org/2000/svg"
   xmlns="http://www.w3.org/2000/svg"
   xmlns:xlink="http://www.w3.org/1999/xlink"
   id="svg52"
   xml:space="preserve"
   enable-background="new 0 0 515 343"
   viewBox="0 0 206.5749 206.57491"
   height="206.57491"
   width="206.57491"
   y="0px"
   x="0px"
   version="1.1"><metadata
   id="metadata58"><rdf:RDF><cc:Work
       rdf:about=""><dc:format>image/svg+xml</dc:format><dc:type
         rdf:resource="http://purl.org/dc/dcmitype/StillImage" /><dc:title></dc:title></cc:Work></rdf:RDF></metadata><defs
   id="defs56" />
<switch
   transform="translate(-1.5838791,91.946275)"
   id="switch50">
	<g
   id="g48">
		
		
	<g
   id="flowRoot3763-7"
   style="font-style:normal;font-weight:normal;font-size:40px;line-height:1.25;font-family:sans-serif;letter-spacing:0px;word-spacing:0px;fill:#000000;fill-opacity:1;stroke:none"
   transform="matrix(1.3368025,0,0,1.3368025,214.52375,-399.42004)"
   aria-label="TECHSHESSIONS" /><g
   transform="matrix(0.76770309,0,0,0.76770309,-88.005737,-75.437668)"
   style="fill:#c8b7b7"
   id="codemotion_xA0_Imagen_1_-7-1"><g
     style="fill:#c8b7b7"
     id="g36-0-8"><g
       style="fill:#ff552a;fill-opacity:1"
       id="g3777-8-7"><g
         id="g4-1-9"
         style="fill:#ff552a;fill-opacity:1"><path
           d="m 275.125,63.125 c 0.756,-1.306 3.006,-2.375 5,-2.375 1.994,0 4.469,0.956 5.5,2.125 1.031,1.169 2.55,3.419 3.375,5 0.825,1.581 1.5,4.084 1.5,5.563 0,1.479 -0.281,5.247 -0.625,8.375 -0.344,3.128 -1.3,6.587 -2.125,7.688 -0.825,1.101 -2.513,2 -3.75,2 -1.237,0 -3.15,-0.788 -4.25,-1.75 -1.1,-0.962 -2.619,-2.875 -3.375,-4.25 -0.756,-1.375 -2.05,-4.046 -2.875,-5.938 -0.825,-1.891 -1.5,-4.872 -1.5,-6.625 0,-1.753 0.394,-4.144 0.875,-5.313 0.481,-1.169 1.494,-3.194 2.25,-4.5 z"
           id="path2-9-2"
           style="fill:#ff552a;fill-opacity:1" /></g><g
         id="g8-9-0"
         style="fill:#ff552a;fill-opacity:1"><path
           d="m 286.875,105.792 c 0.619,1.397 1.969,0.16 3,-2.75 1.031,-2.911 2.325,-7.486 2.875,-10.167 0.55,-2.681 1,-8.1 1,-12.042 0,-3.942 0,-8.948 0,-11.125 0,-2.177 -0.646,-6.827 -1.438,-10.333 -0.792,-3.506 -1.438,-7.837 -1.438,-9.625 0,-1.788 1.997,-1.506 4.438,0.625 2.441,2.131 5.45,7.306 6.688,11.5 1.238,4.194 2.7,10.212 3.25,13.375 0.55,3.163 1.338,8.112 1.75,11 0.412,2.888 0.75,7.894 0.75,11.125 0,3.231 -1.35,13.413 -3,22.625 -1.65,9.212 -4.182,18.55 -5.625,20.75 -1.443,2.2 -4.256,5.688 -6.25,7.75 -1.994,2.062 -4.693,5.044 -6,6.625 -1.307,1.581 -4.175,4.169 -6.375,5.75 -2.2,1.581 -5.519,3.906 -7.375,5.167 -1.856,1.26 -4.219,2.554 -5.25,2.875 -1.031,0.32 -0.975,-3.129 0.125,-7.667 1.1,-4.538 2.169,-11.794 2.375,-16.125 0.206,-4.331 0.094,-11.531 -0.25,-16 -0.344,-4.469 -1.131,-12.063 -1.75,-16.875 C 267.756,107.438 265.9,99.675 264.25,95 262.6,90.325 260.237,84.644 259,82.375 c -1.237,-2.269 -2.925,-5.7 -3.75,-7.625 -0.825,-1.925 -0.037,-2.956 1.75,-2.292 1.787,0.664 4.656,2.071 6.375,3.125 1.719,1.054 4.362,3.154 5.875,4.667 1.513,1.513 3.875,4.663 5.25,7 1.375,2.337 3.456,5.769 4.625,7.625 1.169,1.856 3.138,4.5 4.375,5.875 1.237,1.375 2.756,3.644 3.375,5.042 z"
           id="path6-7-2"
           style="fill:#ff552a;fill-opacity:1" /></g></g><g
       style="fill:#b6b8b9;fill-opacity:1"
       id="g4863-8-3"><g
         id="g12-2-7"
         style="fill:#b6b8b9;fill-opacity:1"><path
           d="m 150.5,140.021 c -0.413,1.249 -0.131,3.668 0.625,5.375 0.756,1.707 3.456,3.835 6,4.729 2.544,0.894 6.931,1.625 9.75,1.625 2.819,0 6.7,-1.064 8.625,-2.364 1.925,-1.301 4.119,-3.944 4.875,-5.875 0.756,-1.931 -0.031,-4.748 -1.75,-6.261 -1.719,-1.513 -4.925,-3.2 -7.125,-3.75 -2.2,-0.55 -5.462,-1 -7.25,-1 -1.788,0 -4.487,0.675 -6,1.5 -1.513,0.825 -3.706,2.006 -4.875,2.625 -1.169,0.619 -2.462,2.147 -2.875,3.396 z"
           id="path10-5-5"
           style="fill:#b6b8b9;fill-opacity:1" /></g><g
         id="g16-3-9"
         style="fill:#b6b8b9;fill-opacity:1"><path
           d="m 191.75,139.146 c 2.888,1.73 3.394,3.98 1.125,5 -2.269,1.02 -5.7,2.36 -7.625,2.979 -1.925,0.619 -5.244,1.913 -7.375,2.875 -2.131,0.962 -5.731,3.044 -8,4.625 -2.269,1.581 -6.206,4.506 -8.75,6.5 -2.544,1.994 -4.625,4.919 -4.625,6.5 0,1.581 2.081,2.388 4.625,1.792 2.544,-0.596 6.481,-1.777 8.75,-2.625 2.269,-0.848 6.487,-1.936 9.375,-2.417 2.888,-0.481 7.219,-0.875 9.625,-0.875 2.406,0 7.637,0.337 11.625,0.75 3.988,0.413 9.837,1.2 13,1.75 3.163,0.55 8.169,1.3 11.125,1.667 2.956,0.366 7.006,1.154 9,1.75 1.994,0.596 5.369,1.871 7.5,2.833 2.131,0.962 4.831,2.538 6,3.5 1.169,0.962 3.138,1.75 4.375,1.75 1.237,0 2.25,-1.406 2.25,-3.125 0,-1.719 -0.787,-5.263 -1.75,-7.875 -0.963,-2.612 -3.044,-7 -4.625,-9.75 -1.581,-2.75 -4,-6.294 -5.375,-7.875 -1.375,-1.581 -3.794,-4.337 -5.375,-6.125 -1.581,-1.788 -4.619,-4.825 -6.75,-6.75 -2.131,-1.925 -5.394,-4.4 -7.25,-5.5 -1.856,-1.1 -5.231,-2.844 -7.5,-3.875 -2.269,-1.031 -7.612,-3 -11.875,-4.375 -4.263,-1.375 -16.525,-2.5 -27.25,-2.5 -10.725,0 -22.594,0.675 -26.375,1.5 -3.781,0.825 -6.875,2.569 -6.875,3.875 0,1.306 4.781,2.6 10.625,2.875 5.844,0.275 13.719,1.4 17.5,2.5 3.781,1.1 8.844,2.788 11.25,3.75 2.406,0.962 6.737,3.166 9.625,4.896 z"
           id="path14-4-2"
           style="fill:#b6b8b9;fill-opacity:1" /></g><g
         id="g22-9-2"
         style="fill:#b6b8b9;fill-opacity:1"><g
           id="g20-0-8"
           style="fill:#b6b8b9;fill-opacity:1"><path
             d="m 204.484,109.785 c -0.329,1.349 1.396,3.298 3.833,4.333 2.437,1.035 5.782,2.707 7.432,3.715 1.65,1.008 6.45,4.983 10.667,8.833 4.216,3.85 9.991,9.775 12.833,13.167 2.842,3.392 7.642,11.117 10.667,17.167 3.025,6.05 6.625,11.075 8,11.167 1.375,0.092 3.25,-1.184 4.166,-2.833 0.917,-1.65 2.717,-8.55 4,-15.333 1.284,-6.783 0.984,-17.358 -0.666,-23.5 -1.65,-6.142 -5.325,-14.767 -8.167,-19.167 -2.842,-4.4 -6.892,-9.95 -9,-12.333 -2.108,-2.383 -5.258,-5.458 -7,-6.833 -1.742,-1.375 -4.892,-4 -7,-5.833 -2.108,-1.833 -5.333,-4.534 -7.167,-6 -1.833,-1.467 -4.008,-2.667 -4.833,-2.667 -0.825,0 -2.025,0.675 -2.667,1.5 -0.642,0.825 -0.642,2.175 0,3 0.642,0.825 1.617,1.95 2.167,2.5 0.55,0.55 1.825,1.675 2.833,2.5 1.009,0.825 2.583,2.4 3.5,3.5 0.917,1.1 2.192,2.6 2.834,3.333 0.642,0.733 2.441,3.358 4,5.833 1.558,2.475 3.358,5.55 4,6.833 0.642,1.283 1.392,3.233 1.667,4.333 0.275,1.1 0.725,3.05 1,4.333 0.275,1.283 0.575,2.933 0.667,3.666 0.092,0.733 -0.658,0.733 -1.667,0 -1.008,-0.733 -2.846,-1.708 -4.083,-2.166 -1.237,-0.458 -3.188,-1.134 -4.333,-1.5 -1.146,-0.367 -3.059,-0.967 -4.25,-1.334 -1.192,-0.366 -3.067,-0.816 -4.167,-1 -1.1,-0.183 -3.575,-0.633 -5.5,-1 -1.925,-0.366 -4.85,-0.667 -6.5,-0.667 -1.65,0 -3.825,0 -4.833,0 -1.01,0.001 -2.104,1.105 -2.433,2.453 z"
             id="path18-2-9"
             style="fill:#b6b8b9;fill-opacity:1" /></g></g><g
         id="g26-0-7"
         style="fill:#b6b8b9;fill-opacity:1"><path
           d="m 207.749,90.667 c 0,-2.934 1.65,-5.858 3.667,-6.5 2.017,-0.642 5.242,-0.642 7.167,0 1.925,0.642 4.625,1.917 6,2.833 1.375,0.917 3.213,2.492 4.083,3.5 0.871,1.009 2.259,2.846 3.084,4.083 0.825,1.237 1.875,3.15 2.333,4.25 0.458,1.1 0.833,2.9 0.833,4 0,1.1 -0.6,2.6 -1.333,3.333 -0.733,0.733 -3.283,1.333 -5.666,1.333 -2.384,0 -6.133,-0.788 -8.333,-1.75 -2.2,-0.962 -5.763,-3.55 -7.917,-5.75 -2.155,-2.199 -3.918,-6.399 -3.918,-9.332 z"
           id="path24-1-3"
           style="fill:#b6b8b9;fill-opacity:1" /></g><g
         id="g30-9-6"
         style="fill:#b6b8b9;fill-opacity:1"><path
           d="m 338.5,106.75 c 1.375,-0.825 3.794,-1.163 5.375,-0.75 1.581,0.413 3.55,1.931 4.375,3.375 0.825,1.444 1.5,4.031 1.5,5.75 0,1.719 -0.731,4.644 -1.625,6.5 -0.894,1.856 -2.862,4.725 -4.375,6.375 -1.513,1.65 -3.763,3.9 -5,5 -1.237,1.1 -3.544,2 -5.125,2 -1.581,0 -3.55,-1.181 -4.375,-2.625 -0.825,-1.444 -1.5,-4.594 -1.5,-7 0,-2.406 0.731,-6.063 1.625,-8.125 0.894,-2.062 2.75,-4.931 4.125,-6.375 1.375,-1.444 3.625,-3.3 5,-4.125 z"
           id="path28-6-1"
           style="fill:#b6b8b9;fill-opacity:1" /></g><g
         id="g34-2-2"
         style="fill:#b6b8b9;fill-opacity:1"><path
           d="m 323.25,143.125 c -0.412,1.581 0.432,2.425 1.875,1.875 1.443,-0.55 3.919,-1.9 5.5,-3 1.581,-1.1 4.057,-2.844 5.5,-3.875 1.443,-1.031 3.412,-2.606 4.375,-3.5 0.963,-0.894 2.537,-2.413 3.5,-3.375 0.963,-0.962 2.65,-2.987 3.75,-4.5 1.1,-1.513 3.631,-4.831 5.625,-7.375 1.994,-2.544 4.469,-4.175 5.5,-3.625 1.031,0.55 1.144,2.8 0.25,5 -0.894,2.2 -2.525,5.8 -3.625,8 -1.1,2.2 -4.362,7.769 -7.25,12.375 -2.888,4.606 -7.443,10.737 -10.125,13.625 -2.682,2.888 -9.094,7.95 -14.25,11.25 -5.156,3.3 -15.956,6.956 -24,8.125 -8.044,1.169 -16.932,1.563 -19.75,0.875 -2.818,-0.688 -5.125,-2.15 -5.125,-3.25 0,-1.1 2.025,-3.406 4.5,-5.125 2.475,-1.719 6.244,-4.7 8.375,-6.625 2.131,-1.925 6.688,-6.481 10.125,-10.125 3.437,-3.644 7.432,-8.144 8.875,-10 1.443,-1.856 3.356,-4.781 4.25,-6.5 0.894,-1.719 2.778,-7.831 4.188,-13.583 1.409,-5.752 4.109,-10.684 6,-10.958 1.891,-0.274 3.55,0.606 3.688,1.958 0.138,1.352 0.193,3.639 0.125,5.083 -0.068,1.444 -0.068,4.2 0,6.125 0.068,1.925 -0.156,6.819 -0.5,10.875 -0.344,4.056 -0.964,8.669 -1.376,10.25 z"
           id="path32-1-9"
           style="fill:#b6b8b9;fill-opacity:1" /></g></g></g></g></g>
</switch>

</svg>
